<?xml version="1.0" encoding="UTF-8"?>
<svg width="32" height="32" viewBox="0 0 32 32" fill="none" xmlns="http://www.w3.org/2000/svg">
  <path d="M16 2C8.268 2 2 8.268 2 16s6.268 14 14 14 14-6.268 14-14S23.732 2 16 2zm0 2c6.627 0 12 5.373 12 12s-5.373 12-12 12S4 22.627 4 16 9.373 4 16 4z" fill="currentColor"/>
  <path d="M16 7l-6 18h3l1.5-4.5h3l1.5 4.5h3l-6-18zm0 4.236L17.618 17h-3.236L16 11.236z" fill="currentColor"/>
  <path d="M16 12a4 4 0 100 8 4 4 0 000-8zm0 2a2 2 0 110 4 2 2 0 010-4z" fill="currentColor" fillOpacity="0.5"/>
</svg> 